<svg xmlns="http://www.w3.org/2000/svg" xmlns:xlink="http://www.w3.org/1999/xlink" width="500" zoomAndPan="magnify" viewBox="0 0 375 225" height="300" preserveAspectRatio="xMidYMid meet" version="1.0"><defs><clipPath id="id1"><path d="M 219 135 L 373.265625 135 L 373.265625 184 L 219 184 Z M 219 135 " clip-rule="nonzero"/></clipPath><clipPath id="id2"><path d="M 2.015625 144 L 178 144 L 178 222 L 2.015625 222 Z M 2.015625 144 " clip-rule="nonzero"/></clipPath></defs><path fill="#f58733" d="M 185.285156 175.660156 L 185.230469 175.625 L 185.285156 175.667969 L 185.339844 175.699219 C 185.28125 175.660156 185.546875 175.832031 185.285156 175.660156 Z M 185.285156 175.660156 " fill-opacity="1" fill-rule="evenodd"/><g clip-path="url(#id1)"><path fill="#00b0f0" d="M 372.621094 182.601562 C 373.019531 183.265625 373.222656 183.613281 373.222656 183.613281 L 372.621094 183.039062 L 372.023438 182.464844 L 370.820312 181.316406 L 370.226562 180.742188 L 369.625 180.167969 L 369.027344 179.59375 L 368.425781 179.019531 L 367.230469 177.871094 L 366.980469 177.632812 L 366.628906 177.300781 L 366.027344 176.730469 L 365.433594 176.160156 L 364.832031 175.589844 L 364.230469 175.027344 L 363.632812 174.46875 L 363.03125 173.914062 L 361.835938 172.820312 L 361.234375 172.285156 L 360.632812 171.753906 L 360.042969 171.234375 L 359.816406 171.039062 L 359.441406 170.707031 L 358.839844 170.175781 L 358.242188 169.648438 L 357.644531 169.125 L 357.046875 168.605469 L 355.84375 167.582031 L 355.25 167.082031 L 354.648438 166.585938 L 354.046875 166.097656 L 353.449219 165.613281 L 352.847656 165.144531 L 352.25 164.675781 L 351.652344 164.21875 L 351.050781 163.769531 L 350.449219 163.328125 L 349.855469 162.898438 L 349.253906 162.472656 L 348.652344 162.054688 L 348.054688 161.640625 L 347.457031 161.230469 L 346.855469 160.828125 L 346.257812 160.433594 L 345.65625 160.050781 L 345.054688 159.671875 L 344.460938 159.300781 L 343.859375 158.9375 L 343.257812 158.582031 L 342.660156 158.238281 L 342.0625 157.898438 L 341.464844 157.570312 L 340.863281 157.25 L 340.261719 156.941406 L 339.667969 156.636719 L 339.191406 156.40625 L 339.066406 156.34375 L 338.464844 156.058594 L 337.867188 155.789062 L 337.265625 155.523438 L 336.667969 155.273438 L 336.070312 155.03125 L 335.46875 154.804688 L 334.867188 154.582031 L 334.273438 154.371094 L 333.671875 154.171875 L 333.070312 153.980469 L 332.472656 153.804688 L 331.875 153.636719 L 331.273438 153.480469 L 330.675781 153.335938 L 330.074219 153.199219 L 329.480469 153.078125 L 328.878906 152.96875 L 328.277344 152.863281 L 327.679688 152.773438 L 327.078125 152.695312 L 326.492188 152.625 L 326.480469 152.625 C 326.28125 152.605469 326.082031 152.582031 325.882812 152.5625 C 325.679688 152.542969 325.480469 152.527344 325.28125 152.507812 L 324.679688 152.46875 L 324.085938 152.445312 L 323.484375 152.433594 L 322.882812 152.425781 L 322.285156 152.4375 L 321.683594 152.457031 C 321.488281 152.464844 321.289062 152.476562 321.085938 152.488281 L 320.488281 152.53125 L 319.886719 152.582031 L 319.285156 152.648438 L 318.691406 152.722656 L 318.089844 152.808594 L 317.492188 152.898438 L 316.890625 153 L 316.292969 153.113281 L 315.691406 153.234375 L 315.09375 153.363281 L 314.492188 153.503906 L 313.898438 153.648438 L 313.296875 153.804688 L 312.925781 153.910156 L 312.699219 153.972656 L 312.101562 154.15625 L 311.503906 154.34375 L 310.902344 154.546875 L 310.304688 154.753906 L 309.703125 154.972656 L 309.101562 155.195312 L 308.507812 155.429688 L 307.90625 155.667969 L 307.304688 155.914062 L 306.707031 156.167969 L 306.109375 156.425781 L 305.507812 156.699219 L 304.910156 156.976562 L 304.308594 157.261719 L 303.714844 157.554688 L 303.113281 157.851562 L 302.511719 158.160156 L 301.914062 158.46875 L 301.3125 158.785156 L 300.714844 159.113281 L 300.117188 159.445312 L 299.515625 159.78125 L 299.039062 160.054688 L 298.917969 160.128906 L 298.324219 160.496094 L 297.722656 160.859375 L 297.121094 161.226562 L 296.523438 161.589844 L 295.925781 161.949219 L 295.621094 162.132812 L 295.324219 162.324219 L 294.726562 162.707031 L 294.125 163.09375 L 293.527344 163.480469 L 292.929688 163.863281 L 292.328125 164.253906 L 292.078125 164.417969 L 291.730469 164.644531 L 291.132812 165.042969 L 289.929688 165.832031 L 289.328125 166.222656 L 288.726562 166.605469 L 288.132812 166.984375 L 287.53125 167.351562 L 286.933594 167.707031 L 286.332031 168.058594 L 285.738281 168.394531 L 285.136719 168.71875 L 284.746094 168.921875 L 284.535156 169.042969 L 283.933594 169.371094 L 283.335938 169.695312 L 282.738281 170.011719 L 282.136719 170.320312 L 281.535156 170.625 L 280.933594 170.917969 L 280.332031 171.203125 L 279.738281 171.480469 L 279.136719 171.746094 L 278.535156 172.003906 C 278.335938 172.09375 278.136719 172.175781 277.933594 172.257812 L 277.332031 172.492188 L 276.734375 172.722656 L 276.136719 172.9375 L 275.535156 173.144531 L 274.9375 173.339844 L 274.339844 173.523438 L 273.738281 173.695312 L 273.136719 173.855469 C 272.9375 173.90625 272.738281 173.957031 272.539062 174 C 272.339844 174.046875 272.136719 174.097656 271.941406 174.136719 C 271.742188 174.179688 271.542969 174.21875 271.339844 174.253906 L 270.738281 174.367188 C 270.539062 174.402344 270.339844 174.433594 270.136719 174.464844 L 269.570312 174.539062 L 269.535156 174.546875 C 269.335938 174.574219 269.140625 174.601562 268.941406 174.628906 C 268.742188 174.652344 268.539062 174.675781 268.339844 174.695312 C 268.140625 174.71875 267.941406 174.730469 267.738281 174.75 C 267.539062 174.761719 267.339844 174.773438 267.136719 174.785156 C 266.9375 174.796875 266.738281 174.800781 266.535156 174.804688 C 266.339844 174.808594 266.140625 174.8125 265.9375 174.8125 C 265.738281 174.8125 265.539062 174.808594 265.339844 174.804688 C 265.140625 174.800781 264.941406 174.792969 264.738281 174.78125 C 264.539062 174.773438 264.339844 174.757812 264.136719 174.742188 C 263.9375 174.730469 263.738281 174.714844 263.535156 174.691406 C 263.339844 174.671875 263.140625 174.648438 262.941406 174.621094 L 262.339844 174.539062 L 261.738281 174.441406 C 261.539062 174.40625 261.339844 174.371094 261.140625 174.328125 C 260.9375 174.289062 260.742188 174.25 260.542969 174.203125 C 260.34375 174.160156 260.140625 174.113281 259.941406 174.0625 C 259.742188 174.015625 259.539062 173.960938 259.339844 173.90625 C 259.140625 173.855469 258.9375 173.792969 258.738281 173.738281 L 258.136719 173.554688 C 257.941406 173.492188 257.738281 173.425781 257.539062 173.359375 C 257.339844 173.289062 257.140625 173.214844 256.941406 173.144531 C 256.742188 173.074219 256.539062 172.996094 256.339844 172.917969 C 256.140625 172.839844 255.9375 172.753906 255.738281 172.671875 C 255.539062 172.589844 255.335938 172.496094 255.140625 172.410156 L 254.738281 172.226562 L 254.542969 172.136719 C 254.34375 172.042969 254.140625 171.949219 253.945312 171.851562 L 253.34375 171.554688 L 252.742188 171.246094 L 252.148438 170.925781 L 251.546875 170.59375 L 250.949219 170.253906 L 250.347656 169.898438 L 249.75 169.53125 L 249.152344 169.160156 L 248.550781 168.769531 L 247.949219 168.375 L 247.351562 167.96875 L 246.75 167.546875 L 246.152344 167.121094 L 245.550781 166.683594 L 244.949219 166.234375 L 244.351562 165.78125 L 243.75 165.316406 L 243.148438 164.84375 L 242.652344 164.449219 L 242.550781 164.367188 L 241.953125 163.882812 L 241.351562 163.394531 L 240.75 162.902344 L 240.152344 162.398438 L 239.550781 161.894531 L 238.953125 161.386719 L 238.351562 160.871094 L 237.75 160.347656 L 237.152344 159.820312 L 236.550781 159.285156 L 235.953125 158.75 L 235.351562 158.207031 L 234.753906 157.65625 L 234.152344 157.105469 L 233.554688 156.542969 L 233.125 156.136719 L 232.957031 155.972656 L 232.359375 155.394531 L 231.757812 154.820312 L 231.164062 154.246094 L 230.5625 153.675781 L 229.960938 153.101562 L 229.363281 152.53125 L 228.765625 151.957031 L 228.167969 151.375 L 227.566406 150.78125 C 227.363281 150.578125 227.164062 150.378906 226.964844 150.179688 C 226.761719 149.972656 226.5625 149.765625 226.371094 149.5625 L 225.957031 149.132812 L 225.769531 148.941406 L 225.167969 148.339844 L 224.566406 147.734375 L 223.964844 147.121094 L 223.371094 146.492188 L 222.769531 145.863281 L 222.171875 145.21875 C 221.957031 144.984375 221.761719 144.765625 221.570312 144.5625 L 221.375 144.347656 L 220.96875 143.910156 C 220.738281 143.65625 220.539062 143.433594 220.375 143.246094 C 219.980469 142.796875 219.773438 142.546875 219.773438 142.546875 C 219.773438 142.546875 219.976562 142.566406 220.375 142.632812 C 220.539062 142.664062 220.742188 142.695312 220.96875 142.738281 C 221.152344 142.773438 221.351562 142.816406 221.570312 142.863281 L 221.613281 142.875 L 222.171875 142.976562 L 222.769531 143.101562 L 223.371094 143.238281 L 223.964844 143.375 L 225.167969 143.671875 L 225.769531 143.828125 L 226.371094 143.992188 L 226.769531 144.105469 L 226.964844 144.152344 L 227.566406 144.3125 L 228.167969 144.484375 L 228.765625 144.667969 L 229.363281 144.855469 L 229.960938 145.050781 L 230.5625 145.25 L 231.164062 145.453125 L 231.757812 145.65625 L 232.359375 145.859375 L 232.957031 146.0625 L 233.558594 146.265625 L 234.15625 146.460938 L 234.703125 146.644531 L 234.757812 146.660156 L 235.355469 146.875 L 235.957031 147.089844 L 236.558594 147.308594 L 237.753906 147.753906 L 238.355469 147.984375 L 238.957031 148.210938 L 239.558594 148.445312 L 240.15625 148.679688 L 240.753906 148.910156 L 241.957031 149.378906 L 242.554688 149.613281 L 243.152344 149.84375 L 243.753906 150.078125 L 244.355469 150.308594 L 244.808594 150.484375 L 244.949219 150.539062 L 245.550781 150.78125 L 246.152344 151.019531 L 246.75 151.253906 L 247.351562 151.480469 L 247.949219 151.707031 L 248.550781 151.925781 L 249.152344 152.140625 L 249.75 152.355469 L 250.347656 152.558594 L 250.949219 152.753906 L 251.546875 152.945312 L 252.148438 153.136719 L 252.742188 153.3125 L 253.34375 153.484375 L 253.945312 153.652344 L 254.542969 153.8125 L 255.144531 153.96875 L 255.742188 154.117188 L 256.339844 154.253906 L 256.34375 154.253906 C 256.542969 154.296875 256.742188 154.335938 256.945312 154.378906 C 257.144531 154.417969 257.34375 154.457031 257.542969 154.492188 L 258.144531 154.589844 C 258.339844 154.621094 258.539062 154.652344 258.742188 154.675781 L 259.34375 154.75 C 259.542969 154.773438 259.742188 154.792969 259.945312 154.8125 C 260.144531 154.832031 260.34375 154.847656 260.546875 154.859375 L 261.148438 154.894531 C 261.34375 154.902344 261.542969 154.90625 261.742188 154.914062 C 261.941406 154.917969 262.140625 154.917969 262.34375 154.917969 L 262.945312 154.910156 C 263.144531 154.90625 263.34375 154.898438 263.542969 154.890625 L 264.140625 154.855469 L 264.742188 154.808594 L 265.34375 154.746094 L 265.941406 154.671875 L 266.542969 154.585938 L 267.140625 154.484375 L 267.742188 154.367188 L 268.34375 154.242188 L 268.597656 154.183594 L 268.945312 154.09375 C 269.144531 154.042969 269.34375 153.988281 269.539062 153.929688 L 270.140625 153.757812 L 270.742188 153.570312 L 271.34375 153.378906 L 271.945312 153.175781 L 272.542969 152.964844 L 273.140625 152.75 L 273.742188 152.53125 L 274.34375 152.304688 L 274.945312 152.082031 L 275.117188 152.015625 L 275.539062 151.8125 L 276.140625 151.535156 L 276.738281 151.257812 L 277.339844 150.980469 L 277.9375 150.703125 L 278.539062 150.429688 L 279.140625 150.148438 L 279.742188 149.863281 L 280.9375 149.261719 L 281.539062 148.949219 L 281.921875 148.746094 L 282.140625 148.636719 L 282.742188 148.324219 L 283.34375 148.007812 L 283.9375 147.683594 L 284.539062 147.359375 L 285.742188 146.695312 L 286.335938 146.363281 L 286.9375 146.03125 L 287.535156 145.699219 L 288.136719 145.371094 L 288.730469 145.046875 L 288.921875 144.945312 L 291.136719 143.679688 L 292.332031 143 L 292.5625 142.863281 L 292.929688 142.667969 L 293.527344 142.347656 L 294.125 142.03125 L 294.726562 141.71875 L 295.324219 141.417969 L 295.925781 141.121094 L 296.386719 140.894531 L 296.523438 140.828125 L 297.121094 140.542969 L 297.722656 140.261719 L 298.324219 139.984375 L 298.917969 139.714844 L 299.519531 139.457031 L 300.121094 139.203125 L 300.71875 138.957031 L 301.320312 138.71875 L 301.917969 138.484375 L 302.515625 138.261719 L 303.117188 138.039062 L 303.71875 137.828125 L 304.3125 137.628906 L 304.914062 137.433594 L 305.511719 137.246094 L 306.113281 137.070312 L 306.714844 136.902344 L 307.308594 136.738281 L 307.910156 136.585938 L 308.511719 136.4375 L 309.109375 136.304688 L 309.707031 136.179688 L 310.308594 136.058594 L 310.90625 135.949219 L 311.507812 135.851562 L 311.917969 135.785156 L 312.101562 135.761719 L 312.699219 135.675781 L 313.300781 135.597656 L 313.902344 135.53125 L 314.496094 135.476562 L 315.097656 135.433594 L 315.695312 135.398438 L 316.296875 135.371094 L 316.894531 135.359375 L 317.496094 135.355469 L 318.09375 135.363281 L 318.695312 135.378906 L 319.289062 135.40625 L 319.890625 135.441406 L 320.492188 135.488281 L 321.089844 135.546875 L 321.691406 135.617188 L 322.289062 135.695312 L 322.886719 135.785156 L 323.488281 135.886719 L 324.089844 135.992188 L 324.683594 136.113281 L 325.285156 136.25 L 325.886719 136.390625 L 326.484375 136.542969 L 327.085938 136.707031 L 327.351562 136.785156 L 327.683594 136.886719 L 328.28125 137.078125 L 328.882812 137.28125 L 329.484375 137.496094 L 330.078125 137.722656 L 330.679688 137.957031 L 331.277344 138.203125 L 331.878906 138.464844 L 332.476562 138.734375 L 333.074219 139.015625 L 333.675781 139.304688 C 333.878906 139.40625 334.078125 139.507812 334.277344 139.609375 L 334.871094 139.925781 L 335.472656 140.246094 L 336.074219 140.585938 L 336.671875 140.9375 C 336.875 141.058594 337.074219 141.175781 337.273438 141.300781 L 337.871094 141.675781 C 338.070312 141.800781 338.269531 141.9375 338.46875 142.066406 C 338.671875 142.195312 338.871094 142.328125 339.070312 142.46875 C 339.269531 142.605469 339.472656 142.746094 339.671875 142.882812 L 340.265625 143.308594 C 340.46875 143.457031 340.667969 143.605469 340.867188 143.75 L 341.199219 143.996094 L 341.46875 144.199219 L 342.066406 144.65625 L 342.667969 145.128906 L 343.261719 145.613281 L 343.863281 146.105469 L 344.464844 146.609375 L 345.0625 147.125 L 345.660156 147.644531 L 346.261719 148.183594 L 346.859375 148.730469 L 347.460938 149.292969 L 348.058594 149.863281 L 348.65625 150.449219 L 349.257812 151.046875 L 349.859375 151.65625 L 350.453125 152.277344 L 351.054688 152.910156 L 351.65625 153.558594 L 352.253906 154.21875 L 352.5625 154.570312 L 352.855469 154.894531 L 353.453125 155.570312 L 354.050781 156.261719 L 354.652344 156.957031 L 355.253906 157.671875 L 355.847656 158.386719 L 356.449219 159.117188 L 357.050781 159.855469 L 357.648438 160.601562 L 358.25 161.363281 L 358.84375 162.132812 L 359.445312 162.910156 L 360.046875 163.699219 L 360.636719 164.5 L 361.238281 165.3125 L 361.839844 166.132812 L 362.4375 166.960938 L 363.039062 167.800781 L 363.636719 168.648438 L 364.234375 169.507812 L 364.835938 170.378906 L 365.4375 171.253906 L 366.03125 172.140625 L 366.632812 173.035156 L 367.234375 173.9375 L 367.832031 174.84375 L 367.867188 174.886719 L 368.429688 175.78125 L 369.03125 176.726562 L 369.628906 177.679688 L 370.230469 178.644531 L 370.828125 179.617188 L 371.425781 180.597656 L 372.027344 181.585938 L 372.625 182.585938 Z M 372.621094 182.601562 " fill-opacity="1" fill-rule="evenodd"/></g><path fill="#128cba" d="M 86.386719 173.058594 L 85.335938 172.566406 L 86.386719 172.25 L 87.4375 171.9375 L 88.488281 171.617188 L 88.492188 171.617188 L 91.644531 170.761719 L 92.269531 170.59375 C 92.410156 170.550781 92.550781 170.507812 92.699219 170.460938 C 93.039062 170.347656 93.390625 170.214844 93.75 170.074219 C 94.09375 169.941406 94.441406 169.796875 94.800781 169.652344 L 95.851562 169.222656 C 96.195312 169.085938 96.546875 168.949219 96.898438 168.8125 L 97.242188 168.6875 L 97.949219 168.40625 L 100.050781 167.578125 L 100.117188 167.550781 L 101.101562 167.058594 L 102.152344 166.539062 L 103.203125 166.015625 L 103.269531 165.980469 L 104.253906 165.496094 L 105.308594 164.976562 L 106.355469 164.460938 L 106.671875 164.304688 L 107.40625 163.867188 L 109.507812 162.632812 L 110.285156 162.175781 L 110.5625 162.015625 C 110.914062 161.816406 111.261719 161.605469 111.617188 161.394531 C 111.964844 161.1875 112.316406 160.96875 112.667969 160.753906 C 113.011719 160.542969 113.367188 160.324219 113.71875 160.097656 C 114.0625 159.878906 114.417969 159.652344 114.769531 159.425781 C 115.117188 159.199219 115.46875 158.96875 115.820312 158.742188 L 116.867188 158.046875 L 117.917969 157.339844 L 118.96875 156.621094 L 120.019531 155.894531 L 121.070312 155.164062 L 122.121094 154.425781 L 123.171875 153.683594 L 124.222656 152.9375 L 125.273438 152.183594 L 126.320312 151.433594 L 126.835938 151.066406 L 127.371094 150.6875 L 128.425781 149.941406 L 129.476562 149.191406 L 131.578125 147.699219 L 132.628906 146.960938 L 133.679688 146.226562 L 134.734375 145.496094 L 135.785156 144.773438 L 136.832031 144.0625 L 137.882812 143.363281 L 138.933594 142.675781 L 139.984375 142 C 140.335938 141.78125 140.683594 141.566406 141.035156 141.34375 C 141.386719 141.128906 141.734375 140.914062 142.085938 140.699219 C 142.433594 140.488281 142.785156 140.28125 143.140625 140.074219 C 143.484375 139.871094 143.839844 139.667969 144.191406 139.464844 C 144.539062 139.265625 144.890625 139.070312 145.242188 138.875 C 145.589844 138.679688 145.941406 138.488281 146.289062 138.304688 C 146.636719 138.117188 146.992188 137.933594 147.339844 137.75 L 147.34375 137.75 C 147.695312 137.570312 148.046875 137.394531 148.394531 137.214844 C 148.746094 137.042969 149.097656 136.875 149.445312 136.707031 C 149.796875 136.539062 150.144531 136.375 150.496094 136.21875 C 150.847656 136.058594 151.195312 135.902344 151.546875 135.75 C 151.898438 135.601562 152.246094 135.453125 152.597656 135.304688 C 152.945312 135.164062 153.296875 135.023438 153.652344 134.882812 C 154 134.75 154.351562 134.617188 154.703125 134.484375 C 155.050781 134.359375 155.402344 134.234375 155.753906 134.113281 C 156.101562 133.992188 156.453125 133.878906 156.800781 133.769531 C 157.152344 133.65625 157.503906 133.546875 157.851562 133.449219 C 158.203125 133.347656 158.554688 133.246094 158.902344 133.152344 C 159.253906 133.054688 159.605469 132.964844 159.953125 132.878906 C 160.304688 132.792969 160.652344 132.710938 161.003906 132.632812 C 161.355469 132.554688 161.703125 132.480469 162.054688 132.414062 C 162.40625 132.34375 162.753906 132.285156 163.105469 132.222656 C 163.453125 132.167969 163.804688 132.109375 164.15625 132.0625 C 164.503906 132.011719 164.855469 131.96875 165.207031 131.929688 C 165.554688 131.886719 165.90625 131.851562 166.253906 131.820312 C 166.605469 131.789062 166.957031 131.765625 167.304688 131.742188 C 167.65625 131.722656 168.007812 131.703125 168.355469 131.691406 C 168.707031 131.683594 169.054688 131.675781 169.40625 131.675781 C 169.757812 131.675781 170.105469 131.675781 170.457031 131.683594 C 170.808594 131.691406 171.15625 131.703125 171.507812 131.726562 C 171.855469 131.746094 172.207031 131.769531 172.558594 131.800781 L 173.058594 131.84375 C 173.246094 131.84375 173.425781 131.851562 173.613281 131.855469 C 173.960938 131.871094 174.3125 131.898438 174.664062 131.933594 C 175.011719 131.96875 175.363281 132.011719 175.710938 132.066406 C 176.0625 132.125 176.414062 132.183594 176.761719 132.253906 C 177.113281 132.320312 177.464844 132.398438 177.8125 132.480469 C 178.164062 132.5625 178.511719 132.65625 178.863281 132.75 C 179.214844 132.84375 179.5625 132.945312 179.914062 133.046875 L 180.035156 133.082031 L 180.96875 133.339844 L 182.019531 133.640625 L 183.070312 133.933594 L 183.554688 134.066406 L 184.125 134.328125 L 185.175781 134.808594 L 186.222656 135.292969 L 187.007812 135.652344 L 187.273438 135.777344 L 188.324219 136.273438 L 189.375 136.765625 L 190.425781 137.261719 L 190.480469 137.292969 L 191.355469 137.710938 L 191.476562 137.78125 L 192.332031 138.28125 L 192.527344 138.398438 L 193.578125 139.03125 L 193.851562 139.199219 L 194.628906 139.683594 L 195.675781 140.328125 L 196.730469 140.976562 C 197.082031 141.199219 197.429688 141.417969 197.78125 141.644531 C 198.128906 141.867188 198.476562 142.097656 198.832031 142.332031 C 199.179688 142.566406 199.527344 142.804688 199.882812 143.058594 L 200.019531 143.160156 L 200.933594 143.816406 L 201.984375 144.570312 L 203.039062 145.328125 L 204.089844 146.082031 L 205.140625 146.839844 L 206.1875 147.589844 L 206.519531 147.828125 L 207.242188 148.382812 L 208.296875 149.195312 L 209.347656 150.011719 L 210.398438 150.84375 L 211.449219 151.683594 C 211.800781 151.964844 212.148438 152.253906 212.5 152.542969 L 212.75 152.75 L 213.550781 153.4375 L 214.605469 154.335938 L 216.707031 156.140625 L 217.753906 157.039062 L 219.855469 158.84375 L 220.910156 159.742188 L 221.960938 160.644531 L 223.011719 161.550781 L 224.0625 162.453125 L 224.839844 163.117188 L 225.117188 163.363281 L 226.167969 164.304688 L 227.21875 165.242188 L 228.265625 166.175781 L 229.316406 167.097656 L 230.367188 168.015625 L 231.417969 168.921875 L 232.46875 169.820312 L 233.519531 170.710938 L 234.570312 171.585938 L 235.621094 172.449219 C 235.972656 172.734375 236.324219 173.019531 236.671875 173.300781 C 237.023438 173.582031 237.375 173.863281 237.71875 174.140625 C 238.074219 174.414062 238.421875 174.6875 238.769531 174.960938 C 239.125 175.230469 239.472656 175.5 239.820312 175.761719 C 240.175781 176.027344 240.527344 176.289062 240.871094 176.550781 C 241.222656 176.808594 241.574219 177.0625 241.921875 177.316406 C 242.277344 177.566406 242.625 177.820312 242.972656 178.066406 C 243.328125 178.3125 243.675781 178.554688 244.023438 178.789062 C 244.375 179.027344 244.722656 179.261719 245.074219 179.492188 C 245.421875 179.722656 245.773438 179.949219 246.121094 180.167969 C 246.472656 180.394531 246.828125 180.609375 247.171875 180.824219 L 247.371094 180.945312 C 247.65625 181.105469 247.941406 181.277344 248.222656 181.449219 C 248.574219 181.664062 248.929688 181.878906 249.273438 182.078125 C 249.539062 182.230469 249.800781 182.375 250.0625 182.503906 L 250.324219 182.617188 L 252.425781 183.53125 L 252.722656 183.664062 C 252.972656 183.804688 253.222656 183.933594 253.480469 184.050781 C 253.832031 184.214844 254.183594 184.359375 254.53125 184.488281 C 254.878906 184.613281 255.230469 184.730469 255.582031 184.835938 C 255.929688 184.945312 256.28125 185.042969 256.628906 185.148438 C 256.980469 185.25 257.332031 185.355469 257.679688 185.46875 L 257.992188 185.566406 C 258.238281 185.664062 258.484375 185.746094 258.730469 185.808594 C 259.082031 185.902344 259.429688 185.972656 259.78125 186.023438 C 260.058594 186.0625 260.335938 186.089844 260.609375 186.101562 L 260.832031 186.132812 L 262.933594 186.382812 L 263.222656 186.417969 C 263.476562 186.449219 263.730469 186.46875 263.988281 186.480469 C 264.335938 186.492188 264.6875 186.492188 265.039062 186.480469 C 265.386719 186.46875 265.738281 186.453125 266.085938 186.425781 C 266.4375 186.40625 266.789062 186.378906 267.136719 186.363281 C 267.488281 186.34375 267.839844 186.332031 268.1875 186.332031 L 268.429688 186.332031 C 268.703125 186.296875 268.96875 186.261719 269.238281 186.21875 C 269.59375 186.164062 269.941406 186.105469 270.289062 186.042969 C 270.644531 185.976562 270.992188 185.910156 271.34375 185.832031 C 271.695312 185.757812 272.042969 185.675781 272.394531 185.589844 C 272.742188 185.503906 273.09375 185.40625 273.445312 185.3125 C 273.792969 185.21875 274.144531 185.113281 274.496094 185.003906 C 274.84375 184.898438 275.195312 184.78125 275.542969 184.664062 C 275.894531 184.542969 276.246094 184.421875 276.59375 184.292969 C 276.949219 184.164062 277.300781 184.023438 277.648438 183.886719 C 278 183.746094 278.351562 183.601562 278.699219 183.449219 L 278.773438 183.421875 C 279.105469 183.28125 279.425781 183.164062 279.75 183.050781 C 280.097656 182.925781 280.445312 182.792969 280.800781 182.640625 C 280.980469 182.5625 281.167969 182.46875 281.359375 182.371094 L 281.851562 182.125 L 283.953125 181.0625 L 284.167969 180.953125 L 285.003906 180.539062 L 286.058594 180.011719 L 287.105469 179.492188 L 288.15625 178.96875 L 289.207031 178.441406 L 289.664062 178.210938 L 290.257812 177.921875 L 291.3125 177.410156 L 293.414062 176.378906 L 294.46875 175.867188 L 295.519531 175.355469 L 296.574219 174.847656 L 297.625 174.34375 L 298.671875 173.839844 L 299.722656 173.347656 L 300.777344 172.855469 L 301.828125 172.371094 L 302.882812 171.894531 L 303.933594 171.425781 L 304.984375 170.964844 L 306.035156 170.515625 C 306.382812 170.367188 306.738281 170.21875 307.089844 170.074219 L 308.140625 169.648438 L 309.195312 169.226562 C 309.542969 169.089844 309.894531 168.953125 310.238281 168.824219 L 310.503906 168.722656 L 311.292969 168.433594 C 311.648438 168.308594 312 168.1875 312.34375 168.066406 C 312.695312 167.945312 313.050781 167.828125 313.398438 167.714844 C 313.75 167.605469 314.105469 167.492188 314.449219 167.386719 C 314.800781 167.28125 315.148438 167.179688 315.5 167.082031 C 315.855469 166.980469 316.203125 166.890625 316.550781 166.800781 C 316.90625 166.710938 317.253906 166.625 317.605469 166.542969 C 317.960938 166.460938 318.308594 166.382812 318.65625 166.308594 C 319.011719 166.234375 319.359375 166.171875 319.710938 166.105469 C 320.058594 166.039062 320.414062 165.984375 320.761719 165.933594 C 321.109375 165.882812 321.460938 165.832031 321.8125 165.789062 C 322.164062 165.746094 322.515625 165.710938 322.859375 165.683594 C 323.214844 165.652344 323.566406 165.625 323.914062 165.609375 C 324.269531 165.589844 324.621094 165.578125 324.964844 165.574219 C 325.320312 165.566406 325.671875 165.574219 326.019531 165.578125 C 326.375 165.585938 326.726562 165.605469 327.070312 165.628906 C 327.425781 165.65625 327.777344 165.6875 328.121094 165.730469 C 328.472656 165.769531 328.824219 165.820312 329.171875 165.875 L 329.621094 165.953125 C 329.824219 165.988281 330.027344 166.027344 330.226562 166.066406 C 330.582031 166.136719 330.929688 166.21875 331.277344 166.304688 C 331.632812 166.394531 331.984375 166.496094 332.332031 166.601562 C 332.6875 166.710938 333.035156 166.828125 333.382812 166.953125 C 333.734375 167.082031 334.085938 167.21875 334.433594 167.363281 C 334.789062 167.507812 335.136719 167.664062 335.480469 167.828125 C 335.839844 167.996094 336.191406 168.171875 336.535156 168.351562 C 336.894531 168.539062 337.242188 168.734375 337.585938 168.933594 C 337.945312 169.140625 338.296875 169.359375 338.640625 169.578125 C 339 169.808594 339.347656 170.039062 339.691406 170.277344 C 340.050781 170.523438 340.398438 170.777344 340.742188 171.039062 C 341.101562 171.304688 341.457031 171.582031 341.792969 171.859375 C 342.15625 172.148438 342.507812 172.445312 342.847656 172.738281 C 343.207031 173.050781 343.550781 173.363281 343.890625 173.671875 L 343.902344 173.679688 L 344.957031 174.6875 L 346.007812 175.695312 L 346.429688 176.101562 L 347.054688 176.828125 L 348.101562 178.054688 L 348.554688 178.578125 C 348.757812 178.8125 348.964844 179.046875 349.15625 179.273438 C 349.53125 179.710938 349.878906 180.132812 350.207031 180.542969 C 350.585938 181.015625 350.933594 181.46875 351.257812 181.90625 C 351.449219 182.160156 351.628906 182.410156 351.808594 182.652344 L 352.3125 183.347656 L 353.363281 184.808594 L 354.414062 186.265625 L 353.363281 185.792969 L 352.3125 185.316406 L 351.308594 184.867188 L 351.257812 184.839844 C 350.933594 184.671875 350.585938 184.5 350.207031 184.328125 C 349.878906 184.175781 349.523438 184.023438 349.15625 183.878906 C 348.824219 183.746094 348.46875 183.609375 348.101562 183.484375 L 347.625 183.320312 L 347.054688 183.101562 C 346.714844 182.976562 346.363281 182.847656 346.003906 182.726562 C 345.660156 182.609375 345.308594 182.492188 344.953125 182.382812 C 344.605469 182.28125 344.257812 182.175781 343.898438 182.082031 C 343.550781 181.992188 343.203125 181.90625 342.847656 181.824219 L 342.671875 181.785156 C 342.386719 181.714844 342.089844 181.652344 341.792969 181.59375 C 341.445312 181.523438 341.097656 181.457031 340.742188 181.394531 C 340.398438 181.335938 340.046875 181.28125 339.691406 181.234375 C 339.34375 181.191406 338.992188 181.152344 338.640625 181.121094 C 338.296875 181.09375 337.941406 181.070312 337.585938 181.058594 C 337.242188 181.046875 336.886719 181.035156 336.535156 181.039062 C 336.191406 181.046875 335.835938 181.054688 335.480469 181.074219 C 335.136719 181.097656 334.785156 181.121094 334.433594 181.160156 C 334.085938 181.199219 333.734375 181.25 333.382812 181.304688 C 333.03125 181.359375 332.679688 181.429688 332.332031 181.503906 C 331.980469 181.582031 331.632812 181.664062 331.277344 181.757812 C 330.925781 181.851562 330.578125 181.960938 330.226562 182.078125 L 329.839844 182.207031 C 329.621094 182.285156 329.402344 182.363281 329.171875 182.445312 C 328.824219 182.574219 328.472656 182.710938 328.121094 182.859375 C 327.769531 183.007812 327.425781 183.160156 327.070312 183.328125 C 326.722656 183.492188 326.371094 183.664062 326.019531 183.84375 C 325.671875 184.019531 325.320312 184.207031 324.964844 184.402344 C 324.617188 184.589844 324.265625 184.792969 323.914062 185 C 323.566406 185.203125 323.214844 185.421875 322.859375 185.640625 C 322.515625 185.855469 322.160156 186.082031 321.8125 186.308594 C 321.464844 186.539062 321.109375 186.777344 320.761719 187.015625 C 320.410156 187.25 320.058594 187.496094 319.710938 187.75 C 319.359375 188 319.011719 188.25 318.65625 188.507812 C 318.304688 188.761719 317.957031 189.027344 317.605469 189.289062 C 317.253906 189.554688 316.90625 189.820312 316.550781 190.097656 C 316.203125 190.367188 315.851562 190.640625 315.5 190.921875 L 314.449219 191.765625 L 314.011719 192.117188 L 313.398438 192.617188 L 312.34375 193.480469 L 311.292969 194.347656 L 310.238281 195.222656 L 309.195312 196.109375 L 308.140625 197 L 307.089844 197.890625 L 306.035156 198.785156 L 304.984375 199.675781 L 303.933594 200.574219 L 302.882812 201.46875 L 301.828125 202.363281 L 300.777344 203.257812 L 299.722656 204.148438 L 298.671875 205.03125 L 297.625 205.914062 L 296.574219 206.789062 L 295.519531 207.660156 L 294.757812 208.28125 L 294.46875 208.527344 C 294.117188 208.820312 293.769531 209.113281 293.414062 209.398438 C 293.0625 209.6875 292.714844 209.96875 292.363281 210.25 L 291.3125 211.089844 L 290.257812 211.917969 L 289.460938 212.542969 L 289.207031 212.746094 L 288.15625 213.574219 L 287.105469 214.40625 L 286.769531 214.667969 C 286.535156 214.855469 286.296875 215.035156 286.050781 215.214844 C 285.707031 215.460938 285.355469 215.691406 284.996094 215.929688 C 284.648438 216.164062 284.292969 216.390625 283.949219 216.628906 L 283.722656 216.785156 C 283.445312 216.988281 283.171875 217.1875 282.898438 217.375 C 282.550781 217.621094 282.195312 217.855469 281.847656 218.089844 C 281.496094 218.3125 281.148438 218.539062 280.796875 218.75 C 280.445312 218.960938 280.097656 219.164062 279.746094 219.367188 C 279.394531 219.566406 279.046875 219.761719 278.695312 219.945312 C 278.34375 220.132812 277.996094 220.3125 277.644531 220.492188 C 277.296875 220.667969 276.945312 220.835938 276.589844 221 C 276.246094 221.164062 275.890625 221.324219 275.539062 221.480469 C 275.191406 221.636719 274.839844 221.785156 274.488281 221.933594 C 274.140625 222.082031 273.789062 222.222656 273.441406 222.359375 C 273.089844 222.5 272.738281 222.636719 272.390625 222.765625 C 272.039062 222.902344 271.6875 223.027344 271.339844 223.15625 L 270.574219 223.421875 L 270.285156 223.515625 C 269.933594 223.621094 269.585938 223.726562 269.234375 223.820312 C 268.882812 223.914062 268.535156 224.007812 268.183594 224.089844 C 267.832031 224.171875 267.484375 224.25 267.132812 224.320312 C 266.785156 224.390625 266.433594 224.460938 266.082031 224.515625 C 265.734375 224.578125 265.382812 224.632812 265.03125 224.679688 C 264.683594 224.726562 264.332031 224.769531 263.984375 224.808594 C 263.632812 224.847656 263.28125 224.878906 262.933594 224.910156 C 262.582031 224.933594 262.230469 224.957031 261.882812 224.972656 C 261.53125 224.992188 261.183594 225 260.832031 225.003906 C 260.480469 225.011719 260.132812 225.011719 259.78125 225.003906 C 259.429688 225 259.082031 224.988281 258.730469 224.972656 C 258.382812 224.960938 258.03125 224.9375 257.679688 224.914062 C 257.332031 224.886719 256.980469 224.855469 256.628906 224.824219 C 256.28125 224.789062 255.929688 224.746094 255.582031 224.703125 C 255.230469 224.65625 254.878906 224.601562 254.53125 224.546875 C 254.179688 224.492188 253.828125 224.429688 253.480469 224.363281 C 253.128906 224.300781 252.777344 224.226562 252.429688 224.152344 C 252.078125 224.074219 251.726562 223.996094 251.378906 223.910156 C 251.027344 223.824219 250.679688 223.734375 250.328125 223.640625 C 249.976562 223.542969 249.628906 223.441406 249.277344 223.335938 C 248.921875 223.230469 248.578125 223.117188 248.226562 223.003906 C 247.875 222.886719 247.523438 222.765625 247.175781 222.640625 C 246.828125 222.515625 246.472656 222.382812 246.128906 222.246094 C 245.773438 222.105469 245.421875 221.964844 245.078125 221.816406 C 244.726562 221.667969 244.371094 221.515625 244.027344 221.359375 C 243.671875 221.199219 243.328125 221.035156 242.976562 220.867188 C 242.621094 220.699219 242.273438 220.519531 241.925781 220.339844 L 241.871094 220.308594 C 241.535156 220.144531 241.203125 219.980469 240.875 219.8125 C 240.519531 219.636719 240.171875 219.449219 239.824219 219.265625 C 239.476562 219.074219 239.121094 218.882812 238.773438 218.683594 C 238.421875 218.488281 238.074219 218.289062 237.726562 218.085938 C 237.375 217.882812 237.019531 217.671875 236.675781 217.457031 C 236.324219 217.246094 235.972656 217.03125 235.625 216.808594 C 235.269531 216.585938 234.917969 216.363281 234.574219 216.132812 C 234.21875 215.898438 233.871094 215.671875 233.523438 215.433594 C 233.171875 215.195312 232.820312 214.957031 232.472656 214.714844 C 232.121094 214.472656 231.769531 214.222656 231.421875 213.976562 C 231.070312 213.726562 230.722656 213.472656 230.371094 213.21875 C 230.023438 212.957031 229.671875 212.699219 229.320312 212.441406 C 228.96875 212.175781 228.621094 211.914062 228.273438 211.644531 C 227.921875 211.378906 227.566406 211.105469 227.222656 210.832031 C 226.871094 210.558594 226.519531 210.285156 226.171875 210.003906 L 225.121094 209.160156 L 224.070312 208.308594 L 223.019531 207.4375 L 221.96875 206.5625 L 220.917969 205.675781 L 219.863281 204.78125 L 218.816406 203.882812 L 217.765625 202.980469 L 216.714844 202.074219 L 216.035156 201.488281 L 215.664062 201.15625 L 214.613281 200.21875 L 213.558594 199.28125 L 210.40625 196.46875 L 209.359375 195.53125 L 208.308594 194.59375 L 207.253906 193.65625 L 205.152344 191.78125 L 204.300781 191.027344 L 204.097656 190.859375 L 203.046875 189.972656 L 201.992188 189.078125 L 200.941406 188.175781 L 199.890625 187.265625 L 198.839844 186.339844 L 198.570312 186.101562 L 197.785156 185.464844 L 196.738281 184.605469 L 195.683594 183.746094 L 194.632812 182.878906 L 193.582031 182.019531 L 193.050781 181.585938 C 192.882812 181.441406 192.707031 181.304688 192.53125 181.160156 C 192.1875 180.890625 191.835938 180.617188 191.480469 180.351562 C 191.132812 180.089844 190.78125 179.835938 190.429688 179.578125 L 189.378906 178.820312 C 189.027344 178.570312 188.675781 178.316406 188.328125 178.0625 C 187.976562 177.800781 187.621094 177.539062 187.277344 177.273438 L 187.15625 177.183594 L 186.230469 176.480469 L 185.675781 176.0625 L 185.304688 175.777344 L 185.179688 175.679688 L 185.148438 175.660156 L 184.492188 175.257812 L 184.128906 175.03125 L 183.078125 174.378906 L 182.027344 173.730469 L 181.878906 173.636719 L 180.976562 173.066406 L 179.925781 172.402344 L 179.277344 171.992188 L 178.875 171.828125 L 177.828125 171.390625 L 176.777344 170.957031 L 176.652344 170.902344 L 175.726562 170.488281 L 174.675781 170.015625 L 174.039062 169.730469 C 173.902344 169.660156 173.757812 169.605469 173.621094 169.550781 C 173.269531 169.421875 172.921875 169.332031 172.570312 169.25 C 172.214844 169.167969 171.867188 169.089844 171.519531 168.980469 L 171.410156 168.953125 C 171.097656 168.859375 170.785156 168.773438 170.464844 168.695312 C 170.117188 168.605469 169.765625 168.519531 169.414062 168.441406 C 169.066406 168.363281 168.714844 168.289062 168.363281 168.222656 C 168.015625 168.152344 167.664062 168.09375 167.316406 168.035156 C 166.964844 167.980469 166.613281 167.929688 166.265625 167.878906 C 165.914062 167.832031 165.5625 167.792969 165.214844 167.753906 C 164.863281 167.714844 164.511719 167.6875 164.164062 167.660156 C 163.8125 167.632812 163.464844 167.613281 163.113281 167.59375 C 162.761719 167.578125 162.414062 167.566406 162.0625 167.558594 C 161.710938 167.546875 161.363281 167.542969 161.011719 167.542969 C 160.664062 167.542969 160.3125 167.550781 159.960938 167.5625 C 159.613281 167.570312 159.261719 167.582031 158.910156 167.605469 C 158.5625 167.621094 158.210938 167.644531 157.863281 167.667969 C 157.511719 167.695312 157.160156 167.726562 156.8125 167.757812 C 156.460938 167.792969 156.109375 167.832031 155.761719 167.871094 C 155.410156 167.914062 155.0625 167.957031 154.710938 168.003906 C 154.359375 168.058594 154.011719 168.109375 153.660156 168.164062 C 153.304688 168.222656 152.957031 168.28125 152.605469 168.34375 C 152.253906 168.40625 151.90625 168.472656 151.554688 168.542969 C 151.207031 168.609375 150.855469 168.683594 150.503906 168.757812 L 150.363281 168.789062 L 149.453125 168.984375 C 149.105469 169.0625 148.753906 169.140625 148.40625 169.222656 C 148.054688 169.304688 147.703125 169.390625 147.355469 169.480469 L 146.304688 169.746094 L 145.253906 170.023438 L 144.203125 170.3125 L 143.152344 170.609375 L 142.097656 170.917969 L 141.046875 171.226562 L 139.996094 171.542969 L 138.949219 171.867188 L 137.898438 172.191406 L 135.796875 172.847656 L 134.746094 173.171875 L 133.691406 173.496094 L 132.640625 173.816406 L 130.539062 174.441406 L 129.875 174.632812 L 129.488281 174.738281 L 128.441406 175.039062 L 127.386719 175.328125 L 125.285156 175.875 L 124.234375 176.132812 L 123.183594 176.386719 L 122.132812 176.621094 C 121.777344 176.699219 121.429688 176.777344 121.082031 176.851562 C 120.730469 176.925781 120.378906 177 120.03125 177.066406 C 119.679688 177.136719 119.328125 177.199219 118.984375 177.265625 C 118.628906 177.332031 118.277344 177.390625 117.933594 177.453125 C 117.578125 177.511719 117.226562 177.566406 116.882812 177.621094 C 116.527344 177.675781 116.175781 177.722656 115.832031 177.769531 C 115.476562 177.820312 115.128906 177.863281 114.78125 177.902344 C 114.425781 177.945312 114.078125 177.976562 113.730469 178.011719 C 113.375 178.046875 113.027344 178.078125 112.679688 178.097656 C 112.328125 178.125 111.976562 178.148438 111.628906 178.164062 L 111.617188 178.164062 L 110.574219 178.210938 L 109.527344 178.261719 L 108.476562 178.316406 L 107.628906 178.359375 L 107.425781 178.355469 C 107.070312 178.34375 106.71875 178.328125 106.375 178.3125 C 106.019531 178.289062 105.667969 178.257812 105.324219 178.234375 L 104.269531 178.144531 L 103.902344 178.113281 L 103.21875 178.050781 L 102.167969 177.957031 L 101.117188 177.867188 L 100.492188 177.808594 L 100.0625 177.742188 C 99.710938 177.675781 99.359375 177.597656 99.011719 177.515625 L 97.964844 177.257812 C 97.761719 177.207031 97.5625 177.15625 97.363281 177.113281 L 96.914062 177.003906 L 95.863281 176.746094 C 95.503906 176.660156 95.148438 176.578125 94.8125 176.496094 C 94.453125 176.40625 94.097656 176.316406 93.761719 176.214844 C 93.398438 176.109375 93.046875 175.996094 92.710938 175.875 C 92.53125 175.804688 92.351562 175.738281 92.179688 175.660156 L 91.65625 175.433594 L 89.554688 174.519531 L 88.507812 174.0625 L 88.453125 174.039062 L 87.457031 173.574219 L 86.40625 173.082031 Z M 86.386719 173.058594 " fill-opacity="1" fill-rule="evenodd"/><g clip-path="url(#id2)"><path fill="#00b0f0" d="M 2.664062 145.3125 C 2.273438 144.699219 2.070312 144.367188 2.058594 144.351562 C 2.070312 144.355469 2.296875 144.476562 2.726562 144.714844 L 3.386719 145.085938 L 4.050781 145.464844 L 4.714844 145.855469 L 5.375 146.242188 L 6.035156 146.640625 L 6.699219 147.042969 L 7.359375 147.449219 L 8.019531 147.859375 L 8.683594 148.273438 L 9.34375 148.691406 L 9.6875 148.910156 L 10.003906 149.117188 L 10.664062 149.546875 L 11.328125 149.96875 L 11.988281 150.398438 L 12.648438 150.824219 L 13.3125 151.253906 L 13.96875 151.6875 L 14.625 152.125 L 15.28125 152.570312 L 15.9375 153.019531 L 16.597656 153.472656 L 17.253906 153.933594 L 17.910156 154.40625 L 18.269531 154.660156 L 18.566406 154.878906 L 19.222656 155.355469 L 19.878906 155.816406 L 20.539062 156.269531 L 21.195312 156.714844 L 21.851562 157.15625 L 22.511719 157.59375 L 23.171875 158.019531 L 23.832031 158.449219 L 26.472656 160.152344 L 27.128906 160.582031 L 27.789062 161.011719 L 28.449219 161.449219 L 29.105469 161.890625 L 29.308594 162.027344 L 29.761719 162.3125 L 30.421875 162.738281 L 31.085938 163.164062 L 31.742188 163.601562 L 33.054688 164.492188 L 33.710938 164.941406 L 34.371094 165.394531 L 36.996094 167.207031 L 37.652344 167.65625 L 38.3125 168.105469 L 38.96875 168.550781 L 39.625 168.988281 L 40.285156 169.417969 L 40.949219 169.847656 L 41.609375 170.265625 L 42.25 170.667969 L 42.265625 170.679688 L 42.933594 171.0625 L 44.914062 172.246094 L 45.578125 172.648438 L 46.898438 173.460938 L 47.5625 173.867188 L 49.542969 175.097656 L 50.207031 175.507812 L 50.867188 175.917969 L 51.527344 176.324219 L 52.855469 177.128906 L 53.515625 177.523438 L 54.179688 177.917969 L 54.839844 178.3125 L 55.5 178.699219 L 56.167969 179.078125 L 56.671875 179.371094 L 56.832031 179.445312 L 57.503906 179.765625 L 58.171875 180.097656 L 58.84375 180.441406 L 59.507812 180.792969 L 60.171875 181.148438 L 60.839844 181.511719 L 61.503906 181.878906 L 62.171875 182.246094 L 63.5 182.980469 L 64.167969 183.347656 L 64.832031 183.707031 L 65.503906 184.0625 L 66.167969 184.417969 L 66.839844 184.757812 L 67.507812 185.09375 L 68.179688 185.417969 L 68.847656 185.730469 L 69.523438 186.03125 L 70.191406 186.3125 L 70.871094 186.582031 L 71.546875 186.832031 L 72.078125 187.019531 L 72.222656 187.074219 L 72.898438 187.34375 L 73.574219 187.617188 L 74.246094 187.898438 L 74.921875 188.179688 L 75.59375 188.460938 L 76.945312 189.023438 L 77.617188 189.300781 L 78.292969 189.566406 L 78.964844 189.824219 L 79.644531 190.082031 L 79.984375 190.203125 L 80.328125 190.292969 L 81.011719 190.472656 L 81.695312 190.65625 L 82.378906 190.835938 L 83.058594 191.019531 L 84.425781 191.378906 L 85.109375 191.5625 L 85.792969 191.742188 L 86.472656 191.925781 L 87.15625 192.105469 L 87.839844 192.289062 L 87.941406 192.316406 L 88.527344 192.425781 L 89.21875 192.550781 L 89.910156 192.671875 L 90.601562 192.789062 L 91.292969 192.898438 L 92.675781 193.101562 L 93.367188 193.191406 L 94.058594 193.277344 L 94.757812 193.355469 L 95.449219 193.421875 L 96.144531 193.488281 L 96.839844 193.542969 L 97.535156 193.585938 L 98.234375 193.625 L 98.9375 193.652344 L 99.636719 193.667969 L 100.335938 193.679688 L 101.035156 193.667969 L 101.742188 193.652344 L 102.445312 193.625 L 103.148438 193.585938 L 103.796875 193.535156 L 103.859375 193.53125 L 104.5625 193.492188 L 105.269531 193.445312 L 105.976562 193.390625 L 106.679688 193.324219 L 107.390625 193.246094 L 108.097656 193.160156 L 108.8125 193.070312 L 109.527344 192.964844 L 110.238281 192.855469 L 110.953125 192.734375 L 111.664062 192.601562 L 112.378906 192.46875 L 113.09375 192.328125 L 113.808594 192.175781 L 114.527344 192.019531 L 115.242188 191.851562 L 115.960938 191.683594 L 116.679688 191.507812 L 117.394531 191.324219 L 118.117188 191.132812 L 118.835938 190.941406 L 119.347656 190.796875 L 119.558594 190.742188 L 120.273438 190.542969 L 120.996094 190.34375 L 121.71875 190.140625 L 122.441406 189.933594 L 123.164062 189.722656 L 123.882812 189.515625 L 124.605469 189.304688 L 125.328125 189.085938 L 126.773438 188.65625 L 127.492188 188.433594 L 128.9375 187.996094 L 129.664062 187.773438 L 130.386719 187.554688 L 131.109375 187.332031 L 133.277344 186.675781 L 134 186.460938 L 134.417969 186.335938 L 134.71875 186.238281 L 135.445312 186 L 136.171875 185.773438 L 136.894531 185.558594 L 137.617188 185.351562 L 138.339844 185.148438 L 139.054688 184.957031 L 139.773438 184.773438 L 140.492188 184.59375 L 141.207031 184.421875 L 141.925781 184.261719 L 142.644531 184.109375 L 143.359375 183.953125 L 144.074219 183.804688 L 144.785156 183.664062 L 145.5 183.523438 L 146.21875 183.394531 L 146.929688 183.265625 L 147.644531 183.140625 L 148.355469 183.015625 L 148.390625 183.011719 L 149.066406 182.917969 L 149.777344 182.828125 L 150.488281 182.742188 L 151.195312 182.65625 L 151.90625 182.574219 L 152.613281 182.5 L 153.324219 182.433594 L 154.03125 182.371094 L 154.738281 182.320312 L 155.441406 182.277344 L 156.144531 182.246094 L 156.851562 182.230469 L 157.550781 182.222656 L 158.25 182.234375 L 158.949219 182.257812 L 159.648438 182.304688 L 160.34375 182.371094 L 160.441406 182.382812 L 161.039062 182.40625 L 161.738281 182.441406 L 162.4375 182.484375 L 163.136719 182.53125 L 163.832031 182.585938 L 164.527344 182.652344 L 165.222656 182.730469 L 165.914062 182.820312 L 166.605469 182.925781 L 167.296875 183.050781 L 167.984375 183.195312 L 168.667969 183.363281 C 168.902344 183.425781 169.125 183.488281 169.351562 183.558594 L 169.640625 183.652344 L 170.027344 183.757812 L 170.710938 183.941406 L 171.394531 184.132812 L 172.078125 184.328125 L 172.761719 184.527344 L 173.445312 184.730469 L 174.125 184.9375 L 174.804688 185.148438 L 175.484375 185.367188 L 176.164062 185.59375 L 176.839844 185.828125 C 177.285156 185.980469 177.519531 186.066406 177.519531 186.066406 C 177.519531 186.066406 177.269531 186.183594 176.785156 186.398438 L 176.054688 186.710938 L 175.324219 187.019531 L 174.59375 187.316406 L 173.863281 187.609375 L 173.132812 187.894531 L 172.40625 188.175781 L 171.675781 188.453125 L 170.222656 188.984375 L 169.703125 189.167969 L 169.496094 189.226562 C 169.261719 189.292969 169.019531 189.371094 168.769531 189.457031 C 168.535156 189.539062 168.292969 189.628906 168.046875 189.726562 C 167.808594 189.816406 167.5625 189.921875 167.316406 190.023438 L 166.578125 190.34375 L 165.84375 190.679688 L 164.375 191.375 L 163.640625 191.730469 L 162.90625 192.082031 L 162.171875 192.421875 L 161.4375 192.753906 L 160.929688 192.972656 L 160.707031 193.066406 L 159.972656 193.378906 C 159.730469 193.488281 159.484375 193.601562 159.234375 193.71875 L 158.5 194.074219 L 157.761719 194.457031 L 157.023438 194.84375 L 156.285156 195.246094 L 155.546875 195.65625 L 154.804688 196.066406 L 154.066406 196.476562 L 153.324219 196.886719 L 152.585938 197.292969 L 151.84375 197.691406 L 151.105469 198.078125 L 150.367188 198.457031 L 149.855469 198.710938 L 149.628906 198.847656 L 148.878906 199.296875 L 148.136719 199.746094 L 145.898438 201.09375 L 145.152344 201.539062 L 144.40625 201.988281 L 143.664062 202.4375 L 142.914062 202.886719 L 141.429688 203.785156 L 140.679688 204.238281 L 139.1875 205.136719 L 138.445312 205.585938 L 137.699219 206.035156 L 136.949219 206.488281 L 136.777344 206.59375 L 136.207031 206.929688 L 135.460938 207.375 L 134.714844 207.824219 L 133.96875 208.277344 L 133.21875 208.730469 L 132.476562 209.183594 L 131.730469 209.636719 L 130.980469 210.085938 L 130.238281 210.53125 L 129.496094 210.972656 L 128.75 211.402344 L 128.007812 211.832031 L 127.265625 212.25 L 126.523438 212.660156 L 125.785156 213.058594 L 125.046875 213.445312 L 124.308594 213.824219 L 123.574219 214.191406 L 122.839844 214.542969 L 122.101562 214.886719 L 121.707031 215.0625 L 121.367188 215.226562 L 120.632812 215.582031 L 119.898438 215.925781 L 119.164062 216.261719 L 118.429688 216.589844 L 117.699219 216.90625 L 116.96875 217.203125 L 116.238281 217.488281 L 115.511719 217.753906 L 114.785156 218 L 114.0625 218.222656 L 113.359375 218.421875 L 113.347656 218.425781 L 111.894531 218.894531 L 111.171875 219.125 L 110.445312 219.351562 L 109.722656 219.570312 L 109.003906 219.773438 L 108.285156 219.964844 L 107.566406 220.132812 L 106.851562 220.28125 C 106.613281 220.324219 106.378906 220.367188 106.136719 220.398438 C 105.898438 220.433594 105.664062 220.464844 105.421875 220.492188 C 105.191406 220.515625 104.953125 220.539062 104.71875 220.554688 L 104.5625 220.5625 L 104.003906 220.667969 L 103.292969 220.785156 L 102.578125 220.882812 L 101.871094 220.96875 L 101.160156 221.039062 L 100.457031 221.09375 L 99.753906 221.140625 L 99.046875 221.167969 L 98.34375 221.1875 L 97.644531 221.191406 L 96.941406 221.1875 L 96.242188 221.171875 L 95.542969 221.148438 L 94.84375 221.113281 L 94.148438 221.070312 L 93.449219 221.011719 L 92.753906 220.953125 L 92.058594 220.882812 L 91.363281 220.804688 L 90.671875 220.722656 L 89.980469 220.636719 L 89.289062 220.542969 L 88.597656 220.445312 L 87.90625 220.339844 L 86.523438 220.121094 L 86.402344 220.097656 L 85.839844 219.933594 L 83.789062 219.335938 L 83.109375 219.136719 L 79.691406 218.140625 L 79.011719 217.941406 L 78.328125 217.742188 L 77.644531 217.546875 L 77.421875 217.480469 L 76.964844 217.3125 L 76.285156 217.042969 L 75.613281 216.753906 L 74.941406 216.453125 L 74.273438 216.136719 L 73.601562 215.808594 L 72.933594 215.472656 L 72.261719 215.132812 L 71.597656 214.789062 L 70.925781 214.445312 L 70.257812 214.101562 L 69.585938 213.769531 L 68.917969 213.445312 L 68.769531 213.378906 L 68.246094 213.113281 L 67.582031 212.777344 L 66.910156 212.441406 L 66.242188 212.097656 L 65.570312 211.761719 L 64.902344 211.425781 L 64.511719 211.230469 L 64.234375 211.046875 L 63.578125 210.597656 L 62.921875 210.140625 L 62.265625 209.695312 L 61.609375 209.246094 L 60.953125 208.789062 L 60.445312 208.445312 L 60.292969 208.335938 L 58.980469 207.40625 L 58.324219 206.9375 L 57.667969 206.472656 L 57.007812 206.003906 L 56.351562 205.539062 L 55.695312 205.070312 L 54.382812 204.140625 L 53.722656 203.671875 L 53.066406 203.207031 L 52.511719 202.8125 L 52.410156 202.738281 L 51.757812 202.238281 L 51.109375 201.726562 L 50.457031 201.203125 L 49.808594 200.667969 L 49.160156 200.121094 L 48.511719 199.566406 L 47.863281 199 L 47.214844 198.425781 L 46.570312 197.847656 L 45.925781 197.261719 L 45.28125 196.667969 L 44.640625 196.070312 L 43.996094 195.472656 L 42.707031 194.261719 L 42.0625 193.652344 L 40.773438 192.441406 L 40.136719 191.839844 L 39.492188 191.238281 L 38.847656 190.640625 L 38.203125 190.054688 L 38.105469 189.964844 L 37.558594 189.46875 L 36.914062 188.863281 L 36.273438 188.246094 L 35.636719 187.609375 L 34.996094 186.960938 L 34.359375 186.296875 L 33.726562 185.625 L 33.089844 184.9375 L 32.453125 184.238281 L 31.820312 183.53125 L 31.1875 182.816406 L 30.558594 182.09375 L 29.925781 181.371094 L 29.292969 180.644531 L 28.664062 179.914062 L 28.03125 179.1875 L 27.402344 178.460938 L 26.769531 177.742188 L 26.140625 177.027344 L 25.785156 176.628906 L 25.507812 176.324219 L 24.871094 175.625 L 24.238281 174.914062 L 23.605469 174.191406 L 22.976562 173.460938 L 22.347656 172.722656 L 21.722656 171.972656 L 21.09375 171.210938 L 20.46875 170.441406 L 19.84375 169.660156 L 19.21875 168.875 L 18.597656 168.078125 L 17.972656 167.277344 L 17.351562 166.460938 L 16.734375 165.640625 L 16.113281 164.804688 L 15.488281 163.96875 L 14.871094 163.121094 L 14.253906 162.269531 L 13.636719 161.410156 L 13.015625 160.546875 L 12.398438 159.679688 L 11.78125 158.804688 L 11.167969 157.933594 L 10.550781 157.0625 L 9.933594 156.1875 L 9.316406 155.316406 L 8.699219 154.449219 L 8.292969 153.882812 L 8.082031 153.582031 L 7.46875 152.691406 L 6.851562 151.796875 L 6.238281 150.902344 L 5.625 149.996094 L 5.011719 149.085938 L 4.398438 148.164062 L 3.789062 147.242188 L 3.179688 146.308594 L 2.570312 145.355469 Z M 2.664062 145.3125 " fill-opacity="1" fill-rule="evenodd"/></g><path fill="#f58733" d="M 118.820312 99.238281 C 118.820312 112.980469 124.453125 125.410156 133.542969 134.34375 L 133.621094 134.292969 L 134.671875 133.617188 C 135.066406 133.363281 135.464844 133.121094 135.859375 132.875 L 137.003906 132.179688 L 138.160156 131.492188 L 139.316406 130.828125 L 140.476562 130.175781 L 141.652344 129.535156 L 142.824219 128.917969 L 144.042969 128.300781 L 145.226562 127.726562 L 146.445312 127.160156 L 147.652344 126.625 L 148.894531 126.101562 L 150.117188 125.613281 L 151.355469 125.148438 C 151.773438 124.996094 152.1875 124.851562 152.605469 124.707031 L 153.859375 124.292969 C 154.277344 124.160156 154.703125 124.03125 155.125 123.90625 C 155.546875 123.777344 155.96875 123.664062 156.390625 123.546875 C 156.816406 123.433594 157.242188 123.320312 157.667969 123.21875 C 158.089844 123.113281 158.519531 123.015625 158.945312 122.917969 C 159.375 122.824219 159.808594 122.738281 160.238281 122.652344 C 160.671875 122.566406 161.105469 122.488281 161.539062 122.417969 C 161.972656 122.34375 162.410156 122.277344 162.839844 122.214844 C 163.28125 122.152344 163.722656 122.09375 164.164062 122.046875 C 164.601562 121.996094 165.035156 121.953125 165.472656 121.914062 C 165.914062 121.875 166.355469 121.84375 166.800781 121.8125 C 167.246094 121.785156 167.691406 121.765625 168.132812 121.75 C 168.578125 121.734375 169.023438 121.726562 169.46875 121.722656 C 169.914062 121.722656 170.363281 121.726562 170.808594 121.734375 C 171.257812 121.75 171.707031 121.765625 172.15625 121.792969 C 172.617188 121.816406 173.082031 121.847656 173.539062 121.886719 L 173.75 121.90625 L 174.152344 121.914062 C 175.394531 121.96875 174.527344 121.90625 175.769531 122.03125 C 176.292969 122.082031 176.820312 122.152344 177.339844 122.230469 C 177.835938 122.304688 178.332031 122.394531 178.824219 122.492188 C 179.296875 122.582031 179.761719 122.6875 180.230469 122.796875 C 180.679688 122.902344 181.125 123.019531 181.570312 123.136719 C 182.015625 123.257812 182.460938 123.378906 182.90625 123.511719 L 182.933594 123.519531 L 187.121094 124.695312 L 188.402344 125.285156 L 191.390625 126.65625 L 191.644531 126.777344 L 192.699219 127.273438 L 194.910156 128.3125 L 196.171875 128.917969 L 196.632812 129.1875 L 197.589844 129.742188 L 199.1875 130.703125 L 200.023438 131.222656 L 201.058594 131.859375 L 202.117188 132.511719 L 203.3125 133.269531 C 203.390625 133.320312 203.472656 133.371094 203.546875 133.421875 C 212.105469 124.570312 217.371094 112.511719 217.371094 99.230469 C 217.371094 72.042969 195.316406 50 168.105469 50 C 140.898438 50 118.839844 72.042969 118.839844 99.230469 Z M 118.820312 99.238281 " fill-opacity="1" fill-rule="evenodd"/><path fill="#eda169" d="M 219.804688 124.738281 C 218.660156 127.046875 217.371094 129.269531 215.976562 131.335938 L 215.53125 132 L 215.972656 131.394531 L 217.042969 132.289062 L 220.980469 132.675781 C 221.402344 132.71875 221.832031 132.78125 222.253906 132.851562 L 223.140625 133.015625 L 223.8125 133.15625 L 224.351562 133.257812 L 225.148438 133.421875 L 225.855469 133.578125 L 226.554688 133.742188 L 227.238281 133.910156 L 227.933594 134.089844 L 228.597656 134.261719 L 229.265625 134.441406 L 229.539062 134.519531 L 229.675781 134.554688 L 230.441406 134.757812 L 231.207031 134.976562 L 231.988281 135.214844 L 232.679688 135.4375 L 233.34375 135.652344 L 233.960938 135.859375 L 234.585938 136.070312 L 236.367188 136.675781 L 237.546875 137.074219 L 238.261719 137.3125 L 238.941406 137.546875 L 239.59375 137.78125 L 240.242188 138.019531 L 240.859375 138.246094 L 241.527344 138.5 L 242.761719 138.96875 L 243.988281 139.445312 L 246.949219 140.601562 L 248.113281 141.050781 L 248.660156 141.261719 L 248.882812 141.351562 L 249.441406 141.578125 L 249.984375 141.792969 L 250.53125 142.011719 L 251.066406 142.210938 L 251.605469 142.414062 L 252.132812 142.609375 L 252.664062 142.800781 L 253.1875 142.980469 L 253.699219 143.160156 L 254.222656 143.332031 L 254.742188 143.496094 L 255.246094 143.65625 L 256.261719 143.953125 L 256.761719 144.097656 L 256.851562 144.117188 L 257.015625 143.835938 L 231.253906 128.9375 L 219.859375 124.714844 L 220.214844 123.929688 L 219.8125 124.742188 Z M 219.804688 124.738281 " fill-opacity="1" fill-rule="evenodd"/><path fill="#eda169" d="M 219.851562 124.710938 L 231.246094 128.933594 L 238.214844 131.511719 L 242.328125 120.414062 L 230.019531 115.859375 L 223.980469 113.625 L 223.804688 114.230469 L 223.378906 115.644531 C 222.660156 118.0625 221.761719 120.464844 220.71875 122.792969 L 220.203125 123.933594 L 219.847656 124.71875 Z M 219.851562 124.710938 " fill-opacity="1" fill-rule="evenodd"/><path fill="#eda169" d="M 230.019531 115.855469 L 242.960938 118.070312 L 244.960938 106.40625 L 237.632812 105.152344 L 225.683594 103.101562 L 225.539062 104.496094 L 225.46875 105.199219 C 225.210938 107.652344 224.777344 110.183594 224.164062 112.710938 L 223.804688 114.21875 L 223.980469 113.613281 L 230.019531 115.84375 Z M 230.019531 115.855469 " fill-opacity="1" fill-rule="evenodd"/><path fill="#eda169" d="M 237.632812 105.15625 L 267.402344 105.15625 L 267.402344 93.320312 L 237.632812 93.320312 L 225.683594 95.367188 L 225.539062 93.972656 L 225.636719 95.425781 C 225.734375 96.882812 225.777344 98.097656 225.777344 99.238281 C 225.777344 100.378906 225.734375 101.59375 225.636719 103.050781 L 225.539062 104.503906 L 225.683594 103.109375 L 237.632812 105.160156 Z M 237.632812 105.15625 " fill-opacity="1" fill-rule="evenodd"/><path fill="#eda169" d="M 225.535156 93.976562 Z M 225.535156 93.976562 Z M 225.535156 93.976562 Z M 237.632812 93.320312 L 244.960938 92.066406 L 242.960938 80.402344 L 231.121094 82.433594 L 224.027344 85.03125 L 223.832031 84.371094 L 224.167969 85.757812 C 224.777344 88.289062 225.210938 90.816406 225.46875 93.273438 L 225.539062 93.976562 L 225.539062 93.988281 L 225.636719 95.421875 C 225.734375 96.878906 225.777344 98.09375 225.777344 99.234375 C 225.777344 100.375 225.734375 101.589844 225.636719 103.046875 L 225.539062 104.5 L 225.683594 103.105469 L 237.632812 105.15625 L 267.402344 105.15625 L 267.402344 93.320312 Z M 237.632812 93.320312 " fill-opacity="1" fill-rule="evenodd"/><path fill="#eda169" d="M 231.121094 82.433594 L 242.398438 78.300781 L 238.320312 67.191406 L 231.34375 69.75 L 219.9375 73.929688 L 220.277344 74.683594 L 220.800781 75.855469 C 221.832031 78.175781 222.71875 80.582031 223.433594 83.011719 L 223.835938 84.367188 L 224.03125 85.027344 L 231.125 82.429688 Z M 231.121094 82.433594 " fill-opacity="1" fill-rule="evenodd"/><path fill="#eda169" d="M 219.933594 73.929688 L 231.339844 69.75 L 257.148438 54.933594 L 251.25 44.671875 L 225.4375 59.492188 L 216.070312 67.234375 L 215.597656 66.585938 L 216.070312 67.289062 C 217.476562 69.390625 218.757812 71.617188 219.882812 73.898438 L 220.261719 74.675781 L 219.929688 73.925781 Z M 219.933594 73.929688 " fill-opacity="1" fill-rule="evenodd"/><path fill="#eda169" d="M 216.074219 67.238281 L 225.441406 59.496094 L 231.167969 54.757812 L 223.617188 45.644531 L 213.503906 54.007812 L 208.515625 58.132812 L 208.925781 58.566406 L 209.96875 59.664062 C 211.71875 61.511719 213.355469 63.488281 214.839844 65.53125 L 215.609375 66.59375 Z M 216.074219 67.238281 " fill-opacity="1" fill-rule="evenodd"/><path fill="#eda169" d="M 213.503906 54 L 221.90625 43.921875 L 212.808594 36.34375 L 208.046875 42.054688 L 200.269531 51.386719 L 200.886719 51.835938 L 201.972656 52.628906 C 204.007812 54.109375 205.976562 55.753906 207.832031 57.515625 L 208.925781 58.558594 L 208.515625 58.125 Z M 213.503906 54 " fill-opacity="1" fill-rule="evenodd"/><path fill="#eda169" d="M 200.269531 51.390625 L 208.046875 42.058594 L 222.960938 16.3125 L 212.710938 10.386719 L 197.804688 36.128906 L 193.582031 47.515625 L 192.800781 47.160156 L 193.605469 47.5625 C 195.917969 48.707031 198.140625 49.992188 200.210938 51.382812 L 200.886719 51.835938 L 200.269531 51.386719 Z M 200.269531 51.390625 " fill-opacity="1" fill-rule="evenodd"/><path fill="#eda169" d="M 193.578125 47.515625 L 197.800781 36.128906 L 200.378906 29.167969 L 189.277344 25.054688 L 184.714844 37.359375 L 182.480469 43.390625 L 183.09375 43.570312 L 184.503906 43.988281 C 186.925781 44.707031 189.328125 45.605469 191.65625 46.648438 L 192.800781 47.164062 L 193.582031 47.519531 Z M 193.578125 47.515625 " fill-opacity="1" fill-rule="evenodd"/><path fill="#eda169" d="M 171.960938 41.6875 L 174.011719 29.75 L 174.011719 0 L 162.167969 0 L 162.167969 29.746094 L 164.214844 41.6875 L 162.820312 41.835938 L 164.273438 41.738281 C 165.734375 41.644531 166.941406 41.601562 168.089844 41.601562 C 169.230469 41.601562 170.445312 41.644531 171.90625 41.738281 L 173.355469 41.835938 Z M 171.960938 41.6875 " fill-opacity="1" fill-rule="evenodd"/><path fill="#eda169" d="M 174.011719 29.75 L 171.960938 41.6875 L 173.355469 41.835938 L 174.058594 41.90625 C 176.511719 42.164062 179.046875 42.597656 181.578125 43.207031 L 183.09375 43.570312 L 182.480469 43.390625 L 184.714844 37.359375 L 186.9375 24.429688 L 175.269531 22.429688 Z M 174.011719 29.75 " fill-opacity="1" fill-rule="evenodd"/><path fill="#eda169" d="M 164.214844 41.6875 L 162.167969 29.746094 L 160.914062 22.425781 L 149.242188 24.425781 L 151.273438 36.253906 L 153.875 43.339844 L 153.210938 43.535156 L 154.601562 43.203125 C 157.136719 42.59375 159.664062 42.15625 162.125 41.902344 L 162.828125 41.828125 L 164.21875 41.6875 Z M 164.214844 41.6875 " fill-opacity="1" fill-rule="evenodd"/><path fill="#eda169" d="M 138.574219 36.039062 L 123.746094 10.246094 L 113.480469 16.140625 L 128.308594 41.929688 L 136.058594 51.289062 L 135.421875 51.753906 L 136.121094 51.289062 C 138.222656 49.886719 140.453125 48.601562 142.734375 47.480469 L 143.519531 47.089844 L 142.757812 47.425781 L 138.574219 36.03125 Z M 138.574219 36.039062 " fill-opacity="1" fill-rule="evenodd"/><path fill="#eda169" d="M 128.308594 41.929688 L 123.570312 36.207031 L 114.445312 43.75 L 122.816406 53.863281 L 126.945312 58.847656 L 127.382812 58.4375 L 128.480469 57.398438 C 130.328125 55.652344 132.304688 54.015625 134.351562 52.527344 L 135.421875 51.757812 L 136.058594 51.292969 L 128.308594 41.933594 Z M 128.308594 41.929688 " fill-opacity="1" fill-rule="evenodd"/><path fill="#eda169" d="M 122.820312 53.863281 L 112.734375 45.460938 L 105.152344 54.554688 L 110.867188 59.308594 L 120.210938 67.082031 L 120.640625 66.492188 L 121.449219 65.386719 C 122.933594 63.351562 124.578125 61.382812 126.34375 59.527344 L 127.386719 58.433594 L 126.949219 58.847656 Z M 122.820312 53.863281 " fill-opacity="1" fill-rule="evenodd"/><path fill="#eda169" d="M 120.207031 67.082031 L 110.859375 59.308594 L 85.101562 44.410156 L 79.167969 54.648438 L 104.929688 69.550781 L 116.324219 73.765625 L 115.964844 74.566406 L 116.375 73.738281 C 117.523438 71.429688 118.808594 69.207031 120.203125 67.140625 L 120.640625 66.488281 L 120.210938 67.078125 Z M 120.207031 67.082031 " fill-opacity="1" fill-rule="evenodd"/><path fill="#eda169" d="M 116.324219 73.765625 L 104.929688 69.550781 L 97.964844 66.964844 L 93.847656 78.0625 L 106.164062 82.617188 L 112.195312 84.851562 L 112.378906 84.242188 L 112.796875 82.835938 C 113.515625 80.421875 114.410156 78.015625 115.460938 75.6875 L 115.964844 74.566406 Z M 116.324219 73.765625 " fill-opacity="1" fill-rule="evenodd"/><path fill="#eda169" d="M 106.160156 82.625 L 93.214844 80.40625 L 91.210938 92.070312 L 98.539062 93.324219 L 110.492188 95.371094 L 110.636719 93.976562 L 110.710938 93.277344 C 110.964844 90.816406 111.402344 88.289062 112.011719 85.761719 L 112.375 84.25 L 112.191406 84.859375 L 106.160156 82.628906 Z M 106.160156 82.625 " fill-opacity="1" fill-rule="evenodd"/><path fill="#eda169" d="M 110.492188 95.367188 L 98.539062 93.320312 L 68.773438 93.320312 L 68.773438 105.15625 L 98.542969 105.15625 L 110.492188 103.105469 L 110.636719 104.496094 L 110.542969 103.050781 C 110.445312 101.59375 110.402344 100.382812 110.402344 99.238281 C 110.402344 98.097656 110.445312 96.882812 110.542969 95.425781 L 110.636719 93.972656 Z M 110.492188 95.367188 " fill-opacity="1" fill-rule="evenodd"/><path fill="#eda169" d="M 110.492188 103.105469 L 98.542969 105.15625 L 91.214844 106.414062 L 93.21875 118.074219 L 105.054688 116.042969 L 112.152344 113.445312 L 112.34375 114.089844 L 112.011719 112.71875 C 111.402344 110.1875 110.964844 107.660156 110.710938 105.207031 L 110.636719 104.503906 L 110.636719 104.496094 L 110.492188 103.109375 Z M 110.492188 103.105469 " fill-opacity="1" fill-rule="evenodd"/><path fill="#eda169" d="M 112.152344 113.445312 L 105.054688 116.042969 L 93.78125 120.175781 L 97.855469 131.285156 L 104.835938 128.730469 L 116.242188 124.546875 L 115.90625 123.796875 L 115.382812 122.621094 C 114.347656 120.300781 113.464844 117.898438 112.746094 115.464844 L 112.34375 114.097656 L 112.152344 113.449219 Z M 112.152344 113.445312 " fill-opacity="1" fill-rule="evenodd"/><path fill="#eda169" d="M 116.242188 124.546875 L 104.835938 128.730469 L 79.027344 143.546875 L 84.925781 153.804688 L 110.734375 138.988281 L 120.101562 131.238281 L 120.566406 131.871094 L 120.097656 131.183594 C 118.691406 129.082031 117.410156 126.855469 116.285156 124.574219 L 115.902344 123.792969 L 116.238281 124.542969 Z M 116.242188 124.546875 " fill-opacity="1" fill-rule="evenodd"/><path fill="#eda169" d="M 120.101562 131.238281 L 110.734375 138.988281 L 105.007812 143.722656 L 110.492188 150.351562 L 111.371094 149.769531 L 112.363281 149.101562 L 113.367188 148.417969 L 114.375 147.722656 L 115.390625 147.019531 L 116.414062 146.296875 L 117.445312 145.574219 L 118.476562 144.839844 L 121.140625 142.9375 L 121.664062 142.570312 L 122.699219 141.835938 L 124.808594 140.339844 L 125.875 139.582031 L 126.503906 139.136719 L 126.210938 138.828125 C 124.460938 136.976562 122.816406 135.003906 121.335938 132.957031 L 120.558594 131.886719 L 120.097656 131.25 Z M 120.101562 131.238281 " fill-opacity="1" fill-rule="evenodd"/><path fill="#eda169" d="M 149.757812 31.855469 L 147.164062 24.804688 L 135.921875 28.933594 L 140.503906 41.390625 L 142.765625 47.527344 L 143.316406 47.28125 L 144.714844 46.660156 C 147.066406 45.613281 149.503906 44.714844 151.957031 43.988281 L 153.234375 43.613281 L 153.996094 43.382812 L 149.757812 31.851562 Z M 149.757812 31.855469 " fill-opacity="1" fill-rule="evenodd"/></svg>